<svg width="86" height="32" viewBox="0 0 86 32" fill="none" xmlns="http://www.w3.org/2000/svg">
<circle cx="15" cy="16" r="15" fill="#2E80CE"/>
<circle cx="19" cy="20" r="8" fill="white"/>
<path d="M41.5697 14.288C40.3097 14.288 39.3317 14.018 38.6357 13.478C37.9517 12.938 37.5977 12.2 37.5737 11.264H39.1937C39.2177 11.636 39.4037 11.99 39.7517 12.326C40.1117 12.65 40.7177 12.812 41.5697 12.812C42.3377 12.812 42.9257 12.662 43.3337 12.362C43.7417 12.05 43.9457 11.672 43.9457 11.228C43.9457 10.832 43.7957 10.526 43.4957 10.31C43.1957 10.082 42.7097 9.932 42.0377 9.86L40.9937 9.752C40.0817 9.656 39.3377 9.386 38.7617 8.942C38.1857 8.486 37.8977 7.85 37.8977 7.034C37.8977 6.422 38.0537 5.9 38.3657 5.468C38.6777 5.024 39.1097 4.688 39.6617 4.46C40.2137 4.22 40.8497 4.1 41.5697 4.1C42.6497 4.1 43.5257 4.34 44.1977 4.82C44.8697 5.3 45.2177 6.014 45.2417 6.962H43.6217C43.6097 6.578 43.4297 6.254 43.0817 5.99C42.7457 5.714 42.2417 5.576 41.5697 5.576C40.8977 5.576 40.3877 5.714 40.0397 5.99C39.6917 6.266 39.5177 6.614 39.5177 7.034C39.5177 7.394 39.6377 7.682 39.8777 7.898C40.1297 8.114 40.5377 8.252 41.1017 8.312L42.1457 8.42C43.1777 8.528 44.0057 8.816 44.6297 9.284C45.2537 9.74 45.5657 10.388 45.5657 11.228C45.5657 11.828 45.3917 12.362 45.0437 12.83C44.7077 13.286 44.2397 13.646 43.6397 13.91C43.0397 14.162 42.3497 14.288 41.5697 14.288ZM48.0701 14V0.86H49.7981V8.708H49.3661C49.3661 7.76 49.4861 6.944 49.7261 6.26C49.9781 5.564 50.3621 5.03 50.8781 4.658C51.3941 4.286 52.0541 4.1 52.8581 4.1H52.9301C54.0821 4.1 54.9521 4.484 55.5401 5.252C56.1281 6.008 56.4221 7.094 56.4221 8.51V14H54.6941V8.15C54.6941 7.37 54.4721 6.764 54.0281 6.332C53.5961 5.9 53.0321 5.684 52.3361 5.684C51.5681 5.684 50.9501 5.942 50.4821 6.458C50.0261 6.962 49.7981 7.628 49.7981 8.456V14H48.0701ZM60.0517 14V4.388H61.7797V14H60.0517ZM58.5757 5.756V4.388H61.7797V5.756H58.5757ZM60.5377 2.84C60.1537 2.84 59.8657 2.738 59.6737 2.534C59.4937 2.33 59.4037 2.072 59.4037 1.76C59.4037 1.448 59.4937 1.19 59.6737 0.985999C59.8657 0.782 60.1537 0.68 60.5377 0.68C60.9217 0.68 61.2037 0.782 61.3837 0.985999C61.5757 1.19 61.6717 1.448 61.6717 1.76C61.6717 2.072 61.5757 2.33 61.3837 2.534C61.2037 2.738 60.9217 2.84 60.5377 2.84ZM65.1208 14V4.388H66.4888V8.51H66.2728C66.2728 7.562 66.3988 6.764 66.6508 6.116C66.9148 5.456 67.3108 4.958 67.8388 4.622C68.3668 4.274 69.0328 4.1 69.8368 4.1H69.9088C71.1208 4.1 72.0148 4.478 72.5908 5.234C73.1788 5.99 73.4728 7.082 73.4728 8.51V14H71.7448V8.15C71.7448 7.406 71.5348 6.812 71.1148 6.368C70.6948 5.912 70.1188 5.684 69.3868 5.684C68.6308 5.684 68.0188 5.918 67.5508 6.386C67.0828 6.854 66.8488 7.478 66.8488 8.258V14H65.1208ZM80.7205 14.324C79.8805 14.324 79.1545 14.18 78.5425 13.892C77.9305 13.604 77.4325 13.226 77.0485 12.758C76.6645 12.278 76.3765 11.744 76.1845 11.156C76.0045 10.568 75.9145 9.968 75.9145 9.356V9.032C75.9145 8.408 76.0045 7.802 76.1845 7.214C76.3765 6.626 76.6645 6.098 77.0485 5.63C77.4325 5.15 77.9185 4.772 78.5065 4.496C79.1065 4.208 79.8085 4.064 80.6125 4.064C81.6565 4.064 82.5145 4.292 83.1865 4.748C83.8705 5.192 84.3745 5.768 84.6985 6.476C85.0345 7.184 85.2025 7.94 85.2025 8.744V9.518H76.6705V8.222H83.9425L83.5465 8.924C83.5465 8.24 83.4385 7.652 83.2225 7.16C83.0065 6.656 82.6825 6.266 82.2505 5.99C81.8185 5.714 81.2725 5.576 80.6125 5.576C79.9285 5.576 79.3585 5.732 78.9025 6.044C78.4585 6.356 78.1225 6.782 77.8945 7.322C77.6785 7.862 77.5705 8.486 77.5705 9.194C77.5705 9.878 77.6785 10.496 77.8945 11.048C78.1225 11.588 78.4705 12.02 78.9385 12.344C79.4065 12.656 80.0005 12.812 80.7205 12.812C81.4765 12.812 82.0885 12.644 82.5565 12.308C83.0365 11.972 83.3245 11.582 83.4205 11.138H85.0405C84.9085 11.798 84.6445 12.368 84.2485 12.848C83.8525 13.328 83.3545 13.694 82.7545 13.946C82.1545 14.198 81.4765 14.324 80.7205 14.324ZM57.0821 28.18C56.2661 28.18 55.6381 28.004 55.1981 27.652C54.7581 27.292 54.5341 26.812 54.5261 26.212H55.3661C55.3821 26.516 55.5181 26.792 55.7741 27.04C56.0381 27.288 56.4741 27.412 57.0821 27.412C57.6501 27.412 58.0741 27.296 58.3541 27.064C58.6421 26.824 58.7861 26.536 58.7861 26.2C58.7861 25.888 58.6661 25.648 58.4261 25.48C58.1941 25.304 57.8541 25.192 57.4061 25.144L56.6861 25.072C56.1101 25.008 55.6421 24.832 55.2821 24.544C54.9301 24.248 54.7541 23.844 54.7541 23.332C54.7541 22.956 54.8501 22.628 55.0421 22.348C55.2341 22.068 55.5021 21.852 55.8461 21.7C56.1981 21.54 56.6101 21.46 57.0821 21.46C57.7621 21.46 58.3141 21.62 58.7381 21.94C59.1701 22.26 59.3901 22.716 59.3981 23.308H58.5581C58.5501 23.004 58.4221 22.748 58.1741 22.54C57.9261 22.332 57.5621 22.228 57.0821 22.228C56.5861 22.228 56.2141 22.336 55.9661 22.552C55.7261 22.768 55.6061 23.032 55.6061 23.344C55.6061 23.608 55.6981 23.828 55.8821 24.004C56.0661 24.172 56.3541 24.276 56.7461 24.316L57.4661 24.388C58.1061 24.46 58.6261 24.644 59.0261 24.94C59.4341 25.236 59.6381 25.66 59.6381 26.212C59.6381 26.588 59.5301 26.928 59.3141 27.232C59.1061 27.528 58.8101 27.76 58.4261 27.928C58.0421 28.096 57.5941 28.18 57.0821 28.18ZM61.4296 28V21.64H62.1496V24.316H62.0056C62.0056 23.732 62.0856 23.228 62.2456 22.804C62.4136 22.38 62.6616 22.052 62.9896 21.82C63.3176 21.58 63.7336 21.46 64.2376 21.46H64.2736C64.7776 21.46 65.1936 21.576 65.5216 21.808C65.8496 22.04 66.0936 22.368 66.2536 22.792C66.4136 23.216 66.4936 23.724 66.4936 24.316H66.2056C66.2056 23.732 66.2856 23.228 66.4456 22.804C66.6136 22.38 66.8616 22.052 67.1896 21.82C67.5256 21.58 67.9456 21.46 68.4496 21.46H68.4856C68.9896 21.46 69.4056 21.576 69.7336 21.808C70.0696 22.04 70.3176 22.368 70.4776 22.792C70.6456 23.216 70.7296 23.724 70.7296 24.316V28H69.8296V24.112C69.8296 23.552 69.6936 23.108 69.4216 22.78C69.1496 22.452 68.7576 22.288 68.2456 22.288C67.7176 22.288 67.2976 22.46 66.9856 22.804C66.6816 23.14 66.5296 23.596 66.5296 24.172V28H65.6296V24.112C65.6296 23.552 65.4936 23.108 65.2216 22.78C64.9496 22.452 64.5576 22.288 64.0456 22.288C63.5176 22.288 63.0976 22.46 62.7856 22.804C62.4816 23.14 62.3296 23.596 62.3296 24.172V28H61.4296ZM73.3086 28V21.652H74.1966V28H73.3086ZM72.2886 22.372V21.652H74.1966V22.372H72.2886ZM73.5006 20.476C73.2846 20.476 73.1206 20.42 73.0086 20.308C72.9046 20.188 72.8526 20.04 72.8526 19.864C72.8526 19.688 72.9046 19.544 73.0086 19.432C73.1206 19.312 73.2846 19.252 73.5006 19.252C73.7166 19.252 73.8766 19.312 73.9806 19.432C74.0846 19.544 74.1366 19.688 74.1366 19.864C74.1366 20.04 74.0846 20.188 73.9806 20.308C73.8766 20.42 73.7166 20.476 73.5006 20.476ZM76.6185 28V19.24H77.5185V28H76.6185ZM75.6945 19.972V19.24H77.5185V19.972H75.6945ZM82.5035 28.204C81.9595 28.204 81.4875 28.112 81.0875 27.928C80.6875 27.736 80.3595 27.484 80.1035 27.172C79.8475 26.852 79.6555 26.496 79.5275 26.104C79.4075 25.712 79.3475 25.308 79.3475 24.892V24.724C79.3475 24.316 79.4075 23.916 79.5275 23.524C79.6555 23.132 79.8475 22.78 80.1035 22.468C80.3595 22.156 80.6795 21.908 81.0635 21.724C81.4555 21.532 81.9115 21.436 82.4315 21.436C83.0955 21.436 83.6475 21.584 84.0875 21.88C84.5355 22.176 84.8715 22.556 85.0955 23.02C85.3195 23.476 85.4315 23.968 85.4315 24.496V24.964H79.7555V24.268H84.8075L84.5795 24.616C84.5795 24.144 84.4955 23.732 84.3275 23.38C84.1675 23.02 83.9275 22.74 83.6075 22.54C83.2955 22.332 82.9035 22.228 82.4315 22.228C81.9355 22.228 81.5235 22.344 81.1955 22.576C80.8675 22.808 80.6195 23.116 80.4515 23.5C80.2915 23.884 80.2115 24.32 80.2115 24.808C80.2115 25.288 80.2915 25.728 80.4515 26.128C80.6195 26.52 80.8715 26.832 81.2075 27.064C81.5515 27.296 81.9835 27.412 82.5035 27.412C83.0555 27.412 83.5035 27.288 83.8475 27.04C84.1915 26.784 84.4035 26.484 84.4835 26.14H85.3235C85.2435 26.564 85.0755 26.932 84.8195 27.244C84.5635 27.548 84.2395 27.784 83.8475 27.952C83.4555 28.12 83.0075 28.204 82.5035 28.204Z" fill="white"/>
</svg>
